# Blender 3.5.0
# www.blender.org
mtllib arbore2.mtl
o Círculo
v -0.010730 0.732670 -1.338154
v -0.454226 0.738195 -0.947472
v -1.270113 0.729453 -0.734075
v -1.446921 0.727667 -0.091254
v -1.258490 0.732670 0.669888
v -0.725882 0.732670 1.159884
v 0.001674 0.732670 1.339235
v 0.729230 0.732670 1.159884
v 1.261839 0.732670 0.669888
v 1.456787 0.732670 0.000540
v 1.261839 0.732670 -0.668807
v 0.688231 0.770165 -1.009689
v -0.007223 1.608897 -0.487404
v -0.233428 1.607702 -0.434519
v -0.400552 1.599796 -0.283861
v -0.463826 1.587725 -0.076472
v -0.406386 1.574633 0.131677
v -0.243644 1.563701 0.285135
v -0.019087 1.557886 0.343468
v 0.207208 1.558920 0.291347
v 0.374518 1.566403 0.142394
v 0.437888 1.578214 -0.064056
v 0.380358 1.591464 -0.272963
v 0.217430 1.602818 -0.428124
v -1.083271 0.733538 -0.270335
v -0.432852 1.593693 -0.179031
v -0.931234 0.728832 -1.017135
v -0.327746 1.603376 -0.350299
v -0.259226 0.717861 -1.221272
v -0.137986 1.608420 -0.457594
v 0.360782 0.682551 -1.306277
v 0.079567 1.606732 -0.465170
v 0.786286 0.754052 -0.727860
v 0.293157 1.597605 -0.356563
v 1.437211 0.740472 -0.359249
v 0.410363 1.584491 -0.164205
v 1.193516 0.732670 0.365720
v 0.406080 1.572211 0.038570
v 1.110704 0.732670 0.937057
v 0.303980 1.563096 0.204422
v 0.231640 0.732670 1.118015
v 0.105898 1.558236 0.313913
v -0.403747 0.849405 1.139767
v -0.131541 1.560596 0.313532
v -0.846769 0.732670 0.761909
v -0.311123 1.568114 0.220931
v -1.453066 0.729719 0.276132
v -0.435227 1.581152 0.026917
vn 0.6760 0.7220 0.1475
vn 0.6637 0.7241 0.1873
vn 0.6352 0.7583 0.1466
vn 0.6034 0.7705 0.2056
vn -0.1608 0.7694 0.6181
vn -0.1581 0.7694 0.6189
vn -0.4799 0.7474 0.4594
vn -0.4679 0.7501 0.4674
vn -0.7084 0.6354 -0.3074
vn -0.7276 0.6418 -0.2421
vn -0.6614 0.7270 -0.1845
vn -0.6341 0.7339 -0.2435
vn 0.6160 0.7707 -0.1628
vn 0.6141 0.7702 -0.1724
vn 0.6256 0.7624 0.1654
vn 0.6272 0.7643 0.1503
vn 0.2205 0.7143 0.6642
vn 0.1908 0.7157 0.6718
vn 0.1594 0.7543 0.6369
vn 0.1557 0.7548 0.6372
vn -0.6183 0.7701 0.1570
vn -0.6200 0.7700 0.1507
vn -0.6219 0.6909 -0.3686
vn -0.6427 0.7287 -0.2367
vn 0.4859 0.6108 -0.6251
vn 0.5207 0.6149 -0.5922
vn 0.4190 0.6833 -0.5979
vn 0.4824 0.7187 -0.5008
vn -0.4003 0.6253 -0.6699
vn -0.4488 0.6080 -0.6549
vn -0.0677 0.6908 -0.7199
vn -0.0422 0.6924 -0.7203
vn 0.4236 0.7886 0.4458
vn 0.4254 0.7886 0.4440
vn 0.1583 0.7590 0.6315
vn 0.1867 0.7645 0.6170
vn -0.4895 0.6960 0.5253
vn -0.4762 0.6957 0.5378
vn -0.4381 0.7463 0.5011
vn -0.4582 0.7521 0.4737
vn 0.2458 0.6860 -0.6848
vn 0.2529 0.6855 -0.6827
vn 0.5434 0.6634 -0.5144
vn 0.5128 0.6681 -0.5392
vn -0.2984 0.6846 -0.6651
vn -0.2536 0.6697 -0.6980
vn -0.3070 0.5866 -0.7495
vn -0.3228 0.5860 -0.7432
s 1
usemtl Material.001
f 37//1 38//2 21//3 9//4
f 43//5 44//6 18//7 6//8
f 25//9 26//10 15//11 3//12
f 35//13 36//14 22//15 10//16
f 41//17 42//18 19//19 7//20
f 47//21 48//22 16//23 4//24
f 33//25 34//26 23//27 11//28
f 29//29 30//30 13//31 1//32
f 39//33 40//34 20//35 8//36
f 45//37 46//38 17//39 5//40
f 31//41 32//42 24//43 12//44
f 27//45 28//46 14//47 2//48
f 4//24 16//23 26//10 25//9
f 3//12 15//11 28//46 27//45
f 2//48 14//47 30//30 29//29
f 1//32 13//31 32//42 31//41
f 12//44 24//43 34//26 33//25
f 11//28 23//27 36//14 35//13
f 10//16 22//15 38//2 37//1
f 9//4 21//3 40//34 39//33
f 8//36 20//35 42//18 41//17
f 7//20 19//19 44//6 43//5
f 6//8 18//7 46//38 45//37
f 5//40 17//39 48//22 47//21
o Círculo.001
v -1.125510 1.289103 -0.038857
v -0.815338 1.289972 0.304152
v -0.661479 1.281854 0.951216
v -0.127918 1.278234 1.110196
v 0.518120 1.282827 0.994874
v 0.948422 1.284180 0.605561
v 1.124536 1.286614 0.054806
v 0.999330 1.289803 -0.509939
v 0.606362 1.292967 -0.937393
v 0.050845 1.294825 -1.112898
v -0.518433 1.294464 -0.989234
v -0.825794 1.331039 -0.571326
v -0.366940 2.118349 -0.138266
v -0.334320 2.091345 0.036551
v -0.217233 2.068591 0.171716
v -0.047093 2.055991 0.231033
v 0.130487 2.056794 0.198653
v 0.267937 2.070820 0.083271
v 0.328467 2.094492 -0.084209
v 0.295895 2.121642 -0.258948
v 0.178937 2.144970 -0.394154
v 0.008879 2.157998 -0.453591
v -0.168749 2.157049 -0.421290
v -0.306328 2.142449 -0.305867
v -0.269060 1.278628 0.813876
v -0.130786 2.062055 0.201358
v -0.887941 1.281713 0.679224
v -0.268411 2.078438 0.112224
v -1.036406 1.273606 0.153987
v -0.348183 2.102745 -0.037797
v -1.085331 1.241808 -0.319259
v -0.343568 2.127754 -0.203576
v -0.585957 1.318019 -0.641279
v -0.242346 2.149433 -0.360092
v -0.252136 1.302295 -1.111305
v -0.075796 2.157783 -0.438685
v 0.348090 1.296030 -0.902877
v 0.093880 2.151690 -0.424337
v 0.825598 1.291367 -0.809916
v 0.228100 2.135273 -0.337709
v 0.945555 1.286895 -0.135729
v 0.310381 2.109520 -0.181303
v 0.939214 1.390576 0.346367
v 0.298105 2.082578 -0.000942
v 0.607359 1.278911 0.675613
v 0.210959 2.064896 0.130529
v 0.180826 1.280549 1.129670
v 0.041576 2.056247 0.214321
vn 0.2130 0.5439 -0.8116
vn 0.2519 0.5467 -0.7986
vn 0.2174 0.5943 -0.7743
vn 0.2868 0.6134 -0.7358
vn 0.6453 0.7205 0.2540
vn 0.6506 0.7187 0.2453
vn 0.4408 0.7212 0.5344
vn 0.4079 0.7140 0.5690
vn -0.3080 0.6535 0.6915
vn -0.2443 0.6577 0.7126
vn -0.1933 0.7304 0.6551
vn -0.2346 0.7360 0.6350
vn -0.1637 0.6215 -0.7661
vn -0.1564 0.6214 -0.7677
vn 0.2220 0.5971 -0.7709
vn 0.1937 0.6009 -0.7755
vn 0.7603 0.6086 -0.2268
vn 0.7732 0.6178 -0.1430
vn 0.7273 0.6669 -0.1620
vn 0.7247 0.6829 -0.0922
vn 0.1017 0.7608 0.6410
vn 0.1048 0.7608 0.6405
vn -0.3830 0.6982 0.6048
vn -0.2592 0.7300 0.6323
vn -0.6165 0.5020 -0.6066
vn -0.6395 0.5034 -0.5810
vn -0.5846 0.5902 -0.5567
vn -0.5418 0.5992 -0.5894
vn -0.6474 0.6296 0.4295
vn -0.6398 0.6244 0.4481
vn -0.7395 0.6727 0.0237
vn -0.7372 0.6736 0.0532
vn 0.5586 0.6618 -0.5001
vn 0.5471 0.6605 -0.5142
vn 0.7282 0.6639 -0.1701
vn 0.7279 0.6640 -0.1710
vn 0.4944 0.6726 0.5507
vn 0.4652 0.6731 0.5749
vn 0.4905 0.7235 0.4857
vn 0.4210 0.7390 0.5259
vn -0.7208 0.6314 -0.2858
vn -0.7132 0.6243 -0.3188
vn -0.5118 0.5406 -0.6676
vn -0.5791 0.5685 -0.5844
vn -0.6462 0.6986 0.3071
vn -0.7071 0.6707 0.2241
vn -0.7227 0.6035 0.3368
vn -0.7361 0.6035 0.3066
s 1
usemtl Material.001
f 85//49 86//50 69//51 57//52
f 91//53 92//54 66//55 54//56
f 73//57 74//58 63//59 51//60
f 83//61 84//62 70//63 58//64
f 89//65 90//66 67//67 55//68
f 95//69 96//70 64//71 52//72
f 81//73 82//74 71//75 59//76
f 77//77 78//78 61//79 49//80
f 87//81 88//82 68//83 56//84
f 93//85 94//86 65//87 53//88
f 79//89 80//90 72//91 60//92
f 75//93 76//94 62//95 50//96
f 52//72 64//71 74//58 73//57
f 51//60 63//59 76//94 75//93
f 50//96 62//95 78//78 77//77
f 49//80 61//79 80//90 79//89
f 60//92 72//91 82//74 81//73
f 59//76 71//75 84//62 83//61
f 58//64 70//63 86//50 85//49
f 57//52 69//51 88//82 87//81
f 56//84 68//83 90//66 89//65
f 55//68 67//67 92//54 91//53
f 54//56 66//55 94//86 93//85
f 53//88 65//87 96//70 95//69
o Círculo.002
v -0.601324 1.925944 -0.595134
v -0.601810 1.904869 -0.269858
v -0.816452 1.861441 0.178713
v -0.603823 1.831744 0.504166
v -0.201044 1.813214 0.722279
v 0.213975 1.809186 0.688204
v 0.568085 1.822699 0.451151
v 0.766670 1.850975 0.075053
v 0.756181 1.885562 -0.340105
v 0.539207 1.917020 -0.684164
v 0.173980 1.937778 -0.865568
v -0.192106 1.973024 -0.768495
v -0.188218 2.617867 -0.248893
v -0.254228 2.593417 -0.136815
v -0.255884 2.563683 -0.010522
v -0.192756 2.536669 0.095963
v -0.081819 2.519437 0.153986
v 0.047185 2.516483 0.148079
v 0.159726 2.528662 0.080010
v 0.225683 2.552809 -0.031903
v 0.227377 2.582474 -0.157754
v 0.164341 2.609723 -0.263964
v 0.053457 2.627258 -0.322153
v -0.075585 2.630280 -0.316688
v -0.547535 1.849589 0.263219
v -0.223799 2.549931 0.043395
v -0.811671 1.881311 -0.079592
v -0.255187 2.576681 -0.065875
v -0.645426 1.902479 -0.448250
v -0.226365 2.603829 -0.184403
v -0.446481 1.890986 -0.735015
v -0.144664 2.622797 -0.275341
v -0.032760 1.953561 -0.704585
v -0.015526 2.629016 -0.319448
v 0.375374 1.936553 -0.816261
v 0.111503 2.618190 -0.291896
v 0.597148 1.897327 -0.438098
v 0.195854 2.596170 -0.211064
v 0.815224 1.870955 -0.170249
v 0.226647 2.570023 -0.105022
v 0.556924 1.834110 0.259091
v 0.196173 2.542001 0.017866
v 0.322136 1.900275 0.532066
v 0.103413 2.522527 0.113776
v -0.008647 1.813919 0.571622
v -0.006231 2.517663 0.150264
v -0.445642 1.820962 0.652467
v -0.137325 2.528027 0.124714
vn 0.7050 0.5670 -0.4259
vn 0.7253 0.5660 -0.3920
vn 0.6821 0.6141 -0.3970
vn 0.7096 0.6243 -0.3266
vn 0.4131 0.6044 0.6812
vn 0.4121 0.6041 0.6821
vn 0.0423 0.6010 0.7981
vn 0.0304 0.5993 0.8000
vn -0.7269 0.5264 0.4411
vn -0.6905 0.5262 0.4963
vn -0.6305 0.6081 0.4824
vn -0.6600 0.6188 0.4259
vn 0.3844 0.6438 -0.6616
vn 0.3820 0.6439 -0.6629
vn 0.6874 0.6093 -0.3953
vn 0.6716 0.6138 -0.4150
vn 0.7487 0.5417 0.3821
vn 0.7232 0.5419 0.4283
vn 0.6763 0.5972 0.4313
vn 0.6617 0.6000 0.4497
vn -0.3332 0.6457 0.6871
vn -0.3373 0.6458 0.6850
vn -0.7532 0.5888 0.2933
vn -0.6693 0.6199 0.4097
vn -0.0977 0.5224 -0.8471
vn -0.0877 0.5225 -0.8481
vn -0.1106 0.5952 -0.7960
vn -0.0204 0.6137 -0.7893
vn -0.8384 0.5352 -0.1033
vn -0.8498 0.5228 -0.0674
vn -0.6424 0.6095 -0.4647
vn -0.6413 0.6096 -0.4661
vn 0.7722 0.6341 0.0398
vn 0.7723 0.6344 0.0321
vn 0.6853 0.5885 0.4290
vn 0.6969 0.5942 0.4016
vn 0.0758 0.5395 0.8386
vn 0.0714 0.5396 0.8389
vn 0.1231 0.5978 0.7921
vn 0.0616 0.6107 0.7895
vn -0.4049 0.5958 -0.6936
vn -0.3929 0.5943 -0.7017
vn -0.0208 0.5650 -0.8248
vn -0.0986 0.5756 -0.8117
vn -0.7781 0.6051 -0.1682
vn -0.7690 0.5895 -0.2471
vn -0.8334 0.5113 -0.2098
vn -0.8338 0.5112 -0.2086
s 1
usemtl Material.001
f 133//97 134//98 117//99 105//100
f 139//101 140//102 114//103 102//104
f 121//105 122//106 111//107 99//108
f 131//109 132//110 118//111 106//112
f 137//113 138//114 115//115 103//116
f 143//117 144//118 112//119 100//120
f 129//121 130//122 119//123 107//124
f 125//125 126//126 109//127 97//128
f 135//129 136//130 116//131 104//132
f 141//133 142//134 113//135 101//136
f 127//137 128//138 120//139 108//140
f 123//141 124//142 110//143 98//144
f 100//120 112//119 122//106 121//105
f 99//108 111//107 124//142 123//141
f 98//144 110//143 126//126 125//125
f 97//128 109//127 128//138 127//137
f 108//140 120//139 130//122 129//121
f 107//124 119//123 132//110 131//109
f 106//112 118//111 134//98 133//97
f 105//100 117//99 136//130 135//129
f 104//132 116//131 138//114 137//113
f 103//116 115//115 140//102 139//101
f 102//104 114//103 142//134 141//133
f 101//136 113//135 144//118 143//117
o Círculo.003
v -0.079801 2.543075 -0.608162
v -0.210117 2.521830 -0.445349
v -0.473394 2.496197 -0.325812
v -0.503931 2.445848 -0.071327
v -0.406900 2.389943 0.217896
v -0.206801 2.352186 0.388850
v 0.044257 2.337703 0.430662
v 0.278727 2.349380 0.331821
v 0.434165 2.385134 0.119679
v 0.469344 2.436638 -0.148011
v 0.374676 2.489420 -0.399447
v 0.169194 2.545177 -0.508120
v -0.010541 3.037516 -0.117711
v -0.066465 3.033347 -0.096292
v -0.104495 3.020652 -0.048591
v -0.114443 3.002821 0.012642
v -0.093641 2.984646 0.071019
v -0.047660 2.971008 0.110879
v 0.011174 2.965542 0.121503
v 0.067092 2.969696 0.100029
v 0.105119 2.982378 0.052240
v 0.115069 3.000210 -0.009027
v 0.094272 3.018400 -0.067349
v 0.048294 3.032052 -0.107122
v -0.390825 2.464987 -0.160571
v -0.109553 3.011595 -0.017473
v -0.372851 2.517607 -0.449229
v -0.087901 3.026211 -0.069428
v -0.157748 2.525669 -0.556172
v -0.042845 3.035130 -0.105363
v 0.044354 2.504112 -0.613704
v 0.012214 3.035425 -0.113641
v 0.213921 2.512807 -0.406947
v 0.069696 3.025720 -0.088641
v 0.447039 2.469944 -0.285503
v 0.105162 3.008892 -0.036851
v 0.397230 2.408355 0.000823
v 0.110095 2.991298 0.021573
v 0.396047 2.365610 0.230679
v 0.089119 2.977041 0.072313
v 0.109746 2.351494 0.330855
v 0.042100 2.967837 0.109594
v -0.100928 2.423820 0.371949
v -0.018244 2.968273 0.116157
v -0.266393 2.380913 0.232396
v -0.066685 2.976650 0.094352
v -0.489475 2.418655 0.072494
v -0.104041 2.993740 0.041791
vn 0.8778 0.4404 0.1886
vn 0.8808 0.4431 0.1669
vn 0.8546 0.4878 0.1784
vn 0.8506 0.4884 0.1947
vn -0.1285 0.4366 0.8904
vn -0.1252 0.4365 0.8910
vn -0.5229 0.4510 0.7233
vn -0.5730 0.4464 0.6873
vn -0.8742 0.4854 -0.0130
vn -0.8666 0.4950 -0.0631
vn -0.8431 0.5314 0.0823
vn -0.8035 0.5907 -0.0739
vn 0.7966 0.5778 -0.1777
vn 0.8050 0.5729 -0.1541
vn 0.8491 0.4716 0.2379
vn 0.8534 0.4961 0.1599
vn 0.4189 0.3639 0.8319
vn 0.3865 0.3652 0.8469
vn 0.3411 0.4194 0.8413
vn 0.3228 0.4219 0.8472
vn -0.7724 0.5284 0.3525
vn -0.7640 0.5246 0.3756
vn -0.8060 0.5755 -0.1380
vn -0.8134 0.5756 -0.0837
vn 0.5982 0.5535 -0.5794
vn 0.5755 0.5587 -0.5972
vn 0.5280 0.6300 -0.5695
vn 0.5681 0.6297 -0.5298
vn -0.5676 0.6132 -0.5493
vn -0.6191 0.5901 -0.5181
vn -0.1489 0.7037 -0.6948
vn -0.1161 0.7048 -0.6999
vn 0.6851 0.4777 0.5499
vn 0.6679 0.4754 0.5726
vn 0.2950 0.4178 0.8593
vn 0.3630 0.4309 0.8262
vn -0.5057 0.3728 0.7779
vn -0.5598 0.3806 0.7360
vn -0.4502 0.4192 0.7884
vn -0.5488 0.4550 0.7013
vn 0.2435 0.6703 -0.7010
vn 0.2564 0.6680 -0.6986
vn 0.6452 0.5715 -0.5071
vn 0.5524 0.6068 -0.5716
vn -0.4577 0.6730 -0.5809
vn -0.4232 0.6711 -0.6087
vn -0.4535 0.6083 -0.6514
vn -0.4883 0.6029 -0.6309
s 1
usemtl Material.001
f 181//145 182//146 165//147 153//148
f 187//149 188//150 162//151 150//152
f 169//153 170//154 159//155 147//156
f 179//157 180//158 166//159 154//160
f 185//161 186//162 163//163 151//164
f 191//165 192//166 160//167 148//168
f 177//169 178//170 167//171 155//172
f 173//173 174//174 157//175 145//176
f 183//177 184//178 164//179 152//180
f 189//181 190//182 161//183 149//184
f 175//185 176//186 168//187 156//188
f 171//189 172//190 158//191 146//192
f 148//168 160//167 170//154 169//153
f 147//156 159//155 172//190 171//189
f 146//192 158//191 174//174 173//173
f 145//176 157//175 176//186 175//185
f 156//188 168//187 178//170 177//169
f 155//172 167//171 180//158 179//157
f 154//160 166//159 182//146 181//145
f 153//148 165//147 184//178 183//177
f 152//180 164//179 186//162 185//161
f 151//164 163//163 188//150 187//149
f 150//152 162//151 190//182 189//181
f 149//184 161//183 192//166 191//165
o Círculo.004
v 0.208834 2.963962 -0.211909
v 0.089230 2.974858 -0.218940
v -0.052464 2.997025 -0.302379
v -0.177035 2.982534 -0.237647
v -0.271980 2.951964 -0.104644
v -0.278950 2.912327 0.037477
v -0.211268 2.874533 0.163278
v -0.087081 2.848667 0.239032
v 0.060320 2.841604 0.244430
v 0.191436 2.855218 0.178033
v 0.271148 2.885906 0.057652
v 0.250171 2.944949 -0.064101
v 0.016281 3.326090 0.092357
v 0.073136 3.145216 -0.054133
v -0.053386 3.100073 0.106553
v 0.031226 3.108566 0.137292
v 0.110739 3.132151 0.067304
v 0.024046 3.156273 -0.081223
v 0.007014 3.098768 0.144786
v 0.095381 3.141965 -0.047982
v -0.063526 3.154541 -0.056539
v -0.032788 3.149856 -0.046962
v 0.046542 3.111937 0.117636
v -0.012676 3.159378 -0.083943
v -0.100487 2.977233 -0.212484
v 0.045643 3.146076 -0.050987
v 0.036843 2.991440 -0.295203
v 0.099225 3.131727 0.093195
v 0.157362 2.962340 -0.232566
v -0.087522 3.149966 -0.035922
v 0.251516 2.916312 -0.163512
v -0.076178 3.113269 0.105960
v 0.218293 2.921647 -0.014296
v 0.115669 3.123523 0.010326
v 0.245690 2.872591 0.126405
v 0.099402 3.120476 0.033683
v 0.099096 2.854343 0.191653
v -0.085000 3.135260 0.026760
v -0.001639 2.839492 0.261041
v -0.099193 3.136834 0.057506
v -0.146204 2.871650 0.163207
v -0.098656 3.148618 0.000789
v -0.230751 2.968143 0.095855
v 0.108551 3.133578 -0.022294
v -0.232143 2.931323 -0.035941
v -0.093709 3.129179 0.078568
v -0.235696 2.971699 -0.186816
v 0.078883 3.125834 0.111865
v -0.030592 3.080193 0.138879
vn 0.4309 0.3253 0.8417
vn 0.4428 0.2288 0.8669
vn 0.5103 0.2887 0.8101
vn 0.4344 0.3793 0.8170
vn -0.6753 0.5885 0.4446
vn -0.7119 0.4811 0.5116
vn -0.8053 0.5893 -0.0646
vn -0.7589 0.6353 -0.1431
vn -0.2979 0.7170 -0.6302
vn -0.3373 0.6619 -0.6694
vn -0.4517 0.7315 -0.5108
vn -0.2958 0.7925 -0.5333
vn 0.7016 0.4671 0.5381
vn 0.7186 0.3937 0.5732
vn 0.3559 0.2832 0.8906
vn 0.4057 0.3752 0.8334
vn -0.1898 0.3064 0.9328
vn -0.2897 0.2158 0.9325
vn -0.2672 0.2905 0.9188
vn -0.2905 0.3878 0.8748
vn -0.5988 0.7445 -0.2953
vn -0.6340 0.7053 -0.3172
vn -0.0691 0.7175 -0.6932
vn -0.2115 0.7723 -0.5990
vn 0.8520 0.4366 0.2891
vn 0.9030 0.3420 0.2601
vn 0.8631 0.5048 -0.0120
vn 0.8351 0.5463 0.0637
vn 0.1435 0.7264 -0.6721
vn 0.1086 0.6867 -0.7188
vn 0.5835 0.6862 -0.4344
vn 0.5809 0.7169 -0.3855
vn -0.0221 0.4138 0.9101
vn -0.0284 0.3169 0.9480
vn -0.4829 0.3562 0.7999
vn -0.4289 0.4334 0.7926
vn -0.8191 0.4988 0.2833
vn -0.8705 0.4290 0.2415
vn -0.8206 0.5010 0.2750
vn -0.7725 0.6245 0.1154
vn 0.7823 0.6099 -0.1268
vn 0.8142 0.5610 -0.1492
vn 0.8532 0.4027 0.3315
vn 0.8262 0.5485 0.1287
vn 0.3659 0.7481 -0.5536
vn 0.5119 0.6700 -0.5376
vn 0.4631 0.6229 -0.6304
vn 0.4529 0.6776 -0.5794
vn 0.1013 0.6455 0.7570
s 1
usemtl Material.001
f 229//193 215//194 208//195 201//196
f 235//197 238//198 232//199 198//200
f 217//201 214//202 216//203 195//204
f 227//205 220//206 240//207 202//208
f 233//209 207//210 224//211 199//212
f 239//213 222//214 213//215 196//216
f 225//217 228//218 209//219 203//220
f 221//221 206//222 212//223 193//224
f 231//225 211//226 241//227 200//228
f 237//229 230//230 234//231 197//232
f 223//233 236//234 226//235 204//236
f 219//237 210//238 218//239 194//240
f 196//216 213//215 214//202 217//201
f 195//204 216//203 210//238 219//237
f 194//240 218//239 206//222 221//221
f 193//224 212//223 236//234 223//233
f 204//236 226//235 228//218 225//217
f 203//220 209//219 220//206 227//205
f 202//208 240//207 215//194 229//193
f 201//196 208//195 211//226 231//225
f 200//228 241//227 207//210 233//209
f 199//212 224//211 238//198 235//197
f 198//200 232//199 230//230 237//229
f 197//232 234//231 222//214 239//213
f 236//234 205//241 226//235
f 213//215 205//241 214//202
f 218//239 205//241 206//222
f 226//235 205//241 228//218
f 240//207 205//241 215//194
f 241//227 205//241 207//210
f 232//199 205//241 230//230
f 238//198 205//241 232//199
f 220//206 205//241 240//207
f 222//214 205//241 213//215
f 206//222 205//241 212//223
f 230//230 205//241 234//231
f 210//238 205//241 218//239
f 216//203 205//241 210//238
f 212//223 205//241 236//234
f 209//219 205//241 220//206
f 208//195 205//241 211//226
f 224//211 205//241 238//198
f 234//231 205//241 222//214
f 215//194 205//241 208//195
f 214//202 205//241 216//203
f 207//210 205//241 224//211
f 228//218 205//241 209//219
f 211//226 205//241 241//227
o Cubo
v -0.209892 0.016859 0.212431
v -0.143471 0.372102 0.140719
v -0.209892 0.016859 -0.211350
v -0.143471 0.372102 -0.139638
v 0.213241 0.016859 0.212431
v 0.146819 0.372102 0.140719
v 0.213241 0.016859 -0.211350
v 0.146819 0.372102 -0.139638
v -0.114182 0.734625 0.141175
v -0.114176 0.734647 -0.133744
v 0.118225 0.734619 0.141182
v 0.118231 0.734641 -0.133736
v -0.083257 1.017402 0.080265
v -0.082715 1.019924 -0.112199
v 0.079171 1.017040 0.080762
v 0.079714 1.019557 -0.111695
vn -0.9830 0.1838 -0.0000
vn -0.0000 0.1979 -0.9802
vn 0.9830 0.1838 -0.0000
vn -0.0000 0.1979 0.9802
vn -0.0000 -1.0000 -0.0000
vn 0.9969 0.0786 -0.0000
vn 0.9908 0.1356 0.0019
vn -0.9968 0.0805 -0.0000
vn -0.0000 -0.0013 1.0000
vn -0.0000 0.0163 -0.9999
vn 0.0022 0.9999 0.0131
vn -0.9940 0.1091 -0.0006
vn -0.0011 0.2099 0.9777
vn 0.0014 0.0762 -0.9971
s 0
usemtl Material.002
f 242//242 243//242 245//242 244//242
f 244//243 245//243 249//243 248//243
f 248//244 249//244 247//244 246//244
f 246//245 247//245 243//245 242//245
f 244//246 248//246 246//246 242//246
f 247//247 249//247 253//247 252//247
f 252//248 253//248 257//248 256//248
f 245//249 243//249 250//249 251//249
f 243//250 247//250 252//250 250//250
f 249//251 245//251 251//251 253//251
f 257//252 255//252 254//252 256//252
f 251//253 250//253 254//253 255//253
f 250//254 252//254 256//254 254//254
f 253//255 251//255 255//255 257//255
